<?xml version="1.0" encoding="utf-8"?>
<!-- Generator: Adobe Illustrator 26.0.3, SVG Export Plug-In . SVG Version: 6.00 Build 0)  -->
<svg version="1.1" id="Calque_1" xmlns="http://www.w3.org/2000/svg" xmlns:xlink="http://www.w3.org/1999/xlink" x="0px" y="0px"
	 viewBox="0 0 260 260" style="enable-background:new 0 0 260 260;" xml:space="preserve">
<style type="text/css">
	.st0{fill:currentColor;}
</style>
<path class="st0" d="M130,0C58.2,0,0,58.2,0,130s58.2,130,130,130s130-58.2,130-130l0,0C259.9,58.3,201.8,0.1,130,0z M130,240.1
	c-60.8,0-110-49.2-110-110s49.2-110,110-110s110,49.2,110,110C239.9,190.8,190.7,240,130,240.1z"/>
<path class="st0" d="M199.7,71.3L199.7,71.3c-1.5,0-2.8,0.6-3.8,1.6l-9.2,9.2L184,79l-0.4-0.4c-28.5-29.8-75.7-30.9-105.5-2.4
	s-30.9,75.7-2.4,105.5c13.7,14.3,32.5,22.6,52.2,23.1c0.6,0,1.2,0,1.8,0c19.2,0,37.7-7.4,51.5-20.7c8.4-8.1,14.9-18.1,18.8-29.1
	c1.8-5.2-0.9-10.9-6.1-12.8c-5.2-1.8-10.9,0.9-12.8,6.1c-7.9,22.3-29.1,37-52.8,36.4C98.1,184,74.3,159,75,128.8s25.7-54,55.9-53.3
	c14.4,0.3,28,6.3,38,16.7l3.5,4.1l-13.9,13.9c-2.1,2.1-2.1,5.5,0,7.6c1,1,2.4,1.6,3.8,1.6h37.2c3,0,5.4-2.4,5.4-5.4l0,0V76.8
	C205.1,73.7,202.7,71.3,199.7,71.3L199.7,71.3z"/>
</svg>
