<svg width="18" height="18" viewBox="0 0 18 18" fill="none" xmlns="http://www.w3.org/2000/svg">
<path d="M15.1996 2.78567C15.1996 2.78567 15.0835 2.7276 15.0254 2.39366C14.9673 2.05972 14.8657 1.14502 14.8657 1.14502L13.5154 2.49529L13.3848 4.61507L15.49 4.4844L16.8403 3.13413C16.8403 3.13413 15.9256 3.0325 15.5917 2.97442C15.2577 2.91634 15.1996 2.78567 15.1996 2.78567Z" stroke="currentColor" stroke-width="1.1" stroke-miterlimit="10" stroke-linecap="round" stroke-linejoin="round"/>
<path d="M13.3848 4.61523L7.79492 10.2051" stroke="currentColor" stroke-width="1.1" stroke-miterlimit="10" stroke-linecap="round" stroke-linejoin="round"/>
<path d="M7.79521 10.6114C8.01973 10.6114 8.20174 10.4294 8.20174 10.2049C8.20174 9.98035 8.01973 9.79834 7.79521 9.79834C7.57068 9.79834 7.38867 9.98035 7.38867 10.2049C7.38867 10.4294 7.57068 10.6114 7.79521 10.6114Z" stroke="currentColor" stroke-width="1.1" stroke-miterlimit="10" stroke-linecap="round" stroke-linejoin="round"/>
<path d="M10.0891 9.20347C10.2198 9.50837 10.2924 9.84231 10.2924 10.2053C10.2924 11.5846 9.17444 12.7026 7.79513 12.7026C6.41582 12.7026 5.29785 11.5846 5.29785 10.2053C5.29785 8.82597 6.41582 7.70801 7.79513 7.70801C8.18714 7.70801 8.55012 7.79512 8.88406 7.95483" stroke="currentColor" stroke-width="1.1" stroke-miterlimit="10" stroke-linecap="round" stroke-linejoin="round"/>
<path d="M11.5986 7.69318C12.0777 8.40462 12.3536 9.27576 12.3536 10.1905C12.3536 12.7023 10.3209 14.7349 7.80911 14.7349C5.29732 14.7349 3.26465 12.7023 3.26465 10.1905C3.26465 7.67866 5.2828 5.646 7.79459 5.646C8.75285 5.646 9.63852 5.93638 10.3645 6.44454" stroke="currentColor" stroke-width="1.1" stroke-miterlimit="10" stroke-linecap="round" stroke-linejoin="round"/>
<path d="M13.1092 6.19764C13.9513 7.31561 14.445 8.69492 14.445 10.2049C14.445 13.8782 11.4686 16.8546 7.79524 16.8546C4.12191 16.8546 1.14551 13.8782 1.14551 10.2049C1.14551 6.53158 4.12191 3.55518 7.79524 3.55518C9.33426 3.55518 10.7426 4.07786 11.8751 4.94901" stroke="currentColor" stroke-width="1.1" stroke-miterlimit="10" stroke-linecap="round" stroke-linejoin="round"/>
</svg>
