<svg xmlns="http://www.w3.org/2000/svg" xmlns:xlink="http://www.w3.org/1999/xlink" width="90" height="84" viewBox="0 0 90 84">
  <defs>
    <clipPath id="clip-Icone-programme_favori">
      <rect width="90" height="84"/>
    </clipPath>
  </defs>
  <g id="Icone-programme_favori" data-name="Icone-programme favori" clip-path="url(#clip-Icone-programme_favori)">
    <path id="calendar" d="M107.219,48.12A10.746,10.746,0,0,0,96.473,37.374H93.787V34.763A2.739,2.739,0,0,0,91.23,32a2.686,2.686,0,0,0-2.816,2.683v2.686H50.8V34.763A2.739,2.739,0,0,0,48.248,32a2.686,2.686,0,0,0-2.816,2.683v2.686H42.746A10.746,10.746,0,0,0,32,48.12v2.015a.672.672,0,0,0,.672.672h73.876a.672.672,0,0,0,.672-.672ZM32,96.475A10.746,10.746,0,0,0,42.746,107.22H96.473a10.746,10.746,0,0,0,10.746-10.746V56.682a.5.5,0,0,0-.5-.5H32.5a.5.5,0,0,0-.5.5ZM89.757,61.552a4.03,4.03,0,1,1-4.03,4.03A4.03,4.03,0,0,1,89.757,61.552Zm0,13.432a4.03,4.03,0,1,1-4.03,4.03A4.03,4.03,0,0,1,89.757,74.984ZM76.325,61.552a4.03,4.03,0,1,1-4.03,4.03A4.03,4.03,0,0,1,76.325,61.552Zm0,13.432a4.03,4.03,0,1,1-4.03,4.03A4.03,4.03,0,0,1,76.325,74.984Zm0,13.432a4.03,4.03,0,1,1-4.03,4.03A4.03,4.03,0,0,1,76.325,88.416ZM62.893,74.984a4.03,4.03,0,1,1-4.03,4.03A4.03,4.03,0,0,1,62.893,74.984Zm0,13.432a4.03,4.03,0,1,1-4.03,4.03A4.03,4.03,0,0,1,62.893,88.416ZM49.462,74.984a4.03,4.03,0,1,1-4.03,4.03A4.03,4.03,0,0,1,49.462,74.984Zm0,13.432a4.03,4.03,0,1,1-4.03,4.03A4.03,4.03,0,0,1,49.462,88.416Z" transform="translate(-32 -32.001)" fill="currentColor"/>
    <path id="heart" d="M68.382,101.647a3.137,3.137,0,0,1-1.765-.546c-7.7-5.23-11.041-8.817-12.881-11.059-3.922-4.779-5.8-9.686-5.746-15A11.06,11.06,0,0,1,58.88,64a11.928,11.928,0,0,1,9.058,4.462.588.588,0,0,0,.888,0A11.921,11.921,0,0,1,77.884,64a11.06,11.06,0,0,1,10.89,11.043c.053,5.315-1.826,10.222-5.746,15-1.84,2.242-5.176,5.828-12.881,11.059A3.137,3.137,0,0,1,68.382,101.647Z" transform="translate(-1.242 -20.066)" fill="#f6c90e" stroke="#220532" stroke-width="5"/>
  </g>
</svg>
