<svg fill="currentColor" width="24" height="24" viewBox="0 0 24 24" xmlns="http://www.w3.org/2000/svg">
<path d="M21.7502 13.875H18.3754V12C18.3754 11.7928 18.2075 11.625 18.0004 11.625H12.3752V10.125H15.7501C15.9573 10.125 16.1251 9.95719 16.1251 9.75V3.75C16.1251 3.54281 15.9573 3.375 15.7501 3.375H8.25012C8.04293 3.375 7.87512 3.54281 7.87512 3.75V9.75C7.87512 9.95719 8.04293 10.125 8.25012 10.125H11.625V11.625H5.99988C5.79269 11.625 5.62488 11.7928 5.62488 12V13.875H2.25C2.04281 13.875 1.875 14.0428 1.875 14.25V20.25C1.875 20.4572 2.04281 20.625 2.25 20.625H9.75C9.95719 20.625 10.125 20.4572 10.125 20.25V14.25C10.125 14.0428 9.95719 13.875 9.75 13.875H6.37512V12.375H17.6251V13.875H14.2502C14.0431 13.875 13.8752 14.0428 13.8752 14.25V20.25C13.8752 20.4572 14.0431 20.625 14.2502 20.625H21.7502C21.9574 20.625 22.1252 20.4572 22.1252 20.25V14.25C22.1252 14.0428 21.9574 13.875 21.7502 13.875ZM8.62512 4.125H15.3751V9.375H8.62512V4.125ZM9.37512 19.875H2.62512V14.625H9.37512V19.875ZM21.3751 19.875H14.6251V14.625H21.3751V19.875Z" stroke="currentColor" stroke-width="0.5"/>
</svg>
