<?xml version="1.0" encoding="utf-8"?>
<!-- Generator: Adobe Illustrator 26.2.0, SVG Export Plug-In . SVG Version: 6.00 Build 0)  -->
<svg version="1.1" id="Calque_1" xmlns="http://www.w3.org/2000/svg" xmlns:xlink="http://www.w3.org/1999/xlink" x="0px" y="0px"
	 viewBox="0 0 400 400" style="enable-background:new 0 0 400 400;" xml:space="preserve">
<path d="M177.8,344.2h44.4c6.1,0,11.1,5,11.1,11.1l0,0c0,6.1-5,11.1-11.1,11.1h-44.4c-6.1,0-11.1-5-11.1-11.1l0,0
	C166.7,349.1,171.7,344.2,177.8,344.2z"/>
<path d="M166.7,310.9h66.5c6.1,0,11.1,5,11.1,11.1l0,0c0,6.1-5,11.1-11.1,11.1h-66.5c-6.1,0-11.1-5-11.1-11.1l0,0
	C155.6,315.9,160.6,310.9,166.7,310.9z"/>
<path d="M278.6,66c-43.5-43.3-113.9-43.1-157.2,0.5c-20.5,20.6-32.1,48.5-32.3,77.6v0.5c0,32.3,12.4,62.5,34,83l3,2.8
	c12.5,11.7,29.6,27.7,29.6,41.8v16.6c0,6.1,5,11.1,11.1,11.1c0,0,0,0,0.1,0h66.4c6.1,0,11.1-4.9,11.1-11c0,0,0,0,0-0.1v-16.6
	c0-13.8,16.9-29.8,29.2-41.4l3.4-3.2c22.2-21.2,33.9-49.9,33.9-82.9C311,115.1,299.4,86.8,278.6,66z M233.2,222h-59.9V81.7h21.4
	v118.9h38.5L233.2,222z"/>
</svg>
