<?xml version="1.0" encoding="utf-8"?>
<!-- Generator: Adobe Illustrator 26.2.0, SVG Export Plug-In . SVG Version: 6.00 Build 0)  -->
<svg version="1.1" id="Calque_1" xmlns="http://www.w3.org/2000/svg" xmlns:xlink="http://www.w3.org/1999/xlink" x="0px" y="0px"
	 viewBox="0 0 400 400" style="enable-background:new 0 0 400 400;" xml:space="preserve">
<path d="M163.2,281.2V122.9L288,202L163.2,281.2z M201.5,93c-60.9,0-110.3,48.9-110.3,109s49.5,109,110.3,109s110.3-48.9,110.3-109
	S262.3,93,201.5,93"/>
<path d="M201.5,334.4C127.7,334.4,67.6,275,67.6,202S127.7,69.6,201.5,69.6S335.4,129,335.4,202S275.3,334.4,201.5,334.4 M200,27.5
	c-96.4,0-174.5,77.2-174.5,172.5S103.6,372.5,200,372.5S374.5,295.3,374.5,200S296.4,27.5,200,27.5"/>
</svg>
