<svg width="18" height="18" viewBox="0 0 18 18" xmlns="http://www.w3.org/2000/svg" xml:space="preserve"
  version="1.1">
  <path
    d="M6.55566 3.2002V6.7002C6.55566 6.76571 6.52945 6.8295 6.4822 6.87676L7.01254 7.40707L6.4822 6.87676C6.43498 6.92398 6.37122 6.9502 6.30566 6.9502H2.80566C2.66738 6.9502 2.55566 6.83848 2.55566 6.7002V3.2002C2.55566 3.06191 2.66738 2.9502 2.80566 2.9502H6.30566C6.37118 2.9502 6.43497 2.97641 6.48223 3.02366L7.01254 2.49332L6.48223 3.02366C6.52945 3.07088 6.55566 3.13464 6.55566 3.2002ZM9.80566 2.9502H13.3057C13.3712 2.9502 13.435 2.97641 13.4822 3.02363C13.5295 3.07089 13.5557 3.13468 13.5557 3.2002V6.7002C13.5557 6.76575 13.5294 6.82951 13.4822 6.87673C13.435 6.92398 13.3712 6.9502 13.3057 6.9502H9.80566C9.74011 6.9502 9.67635 6.92398 9.62913 6.87676C9.58188 6.8295 9.55566 6.76571 9.55566 6.7002V3.2002C9.55566 3.06191 9.66738 2.9502 9.80566 2.9502ZM2.80566 9.9502H6.30566C6.37122 9.9502 6.43498 9.97641 6.4822 10.0236C6.52945 10.0709 6.55566 10.1347 6.55566 10.2002V13.7002C6.55566 13.7657 6.52945 13.8295 6.48223 13.8767C6.43497 13.924 6.37118 13.9502 6.30566 13.9502H2.80566C2.74011 13.9502 2.67635 13.924 2.62913 13.8768C2.58188 13.8295 2.55566 13.7657 2.55566 13.7002V10.2002C2.55566 10.0619 2.66738 9.9502 2.80566 9.9502ZM10.1416 10.5361C10.5167 10.161 11.0253 9.9502 11.5556 9.9502C12.0857 9.9502 12.5944 10.1611 12.9696 10.5362C13.3447 10.9112 13.5555 11.4199 13.5555 11.9501C13.5555 12.4803 13.3447 12.989 12.9695 13.3642C12.5945 13.7392 12.0858 13.9501 11.5556 13.9501C11.0254 13.9501 10.5167 13.7392 10.1416 13.3641C9.76649 12.9891 9.55563 12.4804 9.55563 11.9501C9.55563 11.42 9.76651 10.9113 10.1416 10.5361Z"
    fill="none"
    stroke="currentColor"
    />
</svg>
