<?xml version="1.0" encoding="UTF-8"?>
<svg xmlns="http://www.w3.org/2000/svg"
  xmlns:xlink="http://www.w3.org/1999/xlink" viewBox="000 000 500 500">
  <path stroke-width="5" fill="currentColor" stroke="currentColor"
    d="M87.83,447.13L113.47,62.36l17.96,18.73c2.59,2.74,7.38,2.74,10,0l23.83-24.88,23.83,24.88c2.63,2.74,7.42,2.74,10,0l23.83-24.88,23.83,24.88c1.31,1.35,3.13,2.12,5.02,2.12s3.71-.77,4.98-2.12l23.87-24.88,23.83,24.88c2.63,2.74,7.38,2.74,10,0l23.83-24.88,23.87,24.88c1.31,1.35,3.13,2.12,4.98,2.12s3.71-.77,5.02-2.12l17.88-18.62,22.71,384.66H87.83ZM402.99,45.78c-.15-2.74-1.93-5.14-4.52-6.1-2.59-.97-5.49-.27-7.42,1.7l-23.87,24.88-23.83-24.88c-2.63-2.7-7.42-2.7-10,0l-23.87,24.88-23.83-24.88c-2.63-2.7-7.38-2.7-10,0l-23.83,24.88-23.83-24.88c-2.63-2.7-7.42-2.7-10,0l-23.83,24.88-23.83-24.88c-2.63-2.7-7.42-2.7-10.04,0l-23.83,24.88-23.83-24.88c-1.89-1.97-4.79-2.63-7.38-1.7-2.59,.93-4.37,3.32-4.56,6.06l-27.16,407.84c-.12,1.93,.54,3.82,1.85,5.21,1.31,1.39,3.13,2.2,5.06,2.2H420.14c1.93,0,3.75-.81,5.06-2.16,1.31-1.39,1.97-3.28,1.85-5.18l-24.07-407.88Z" />
  <path stroke-width="5" fill="currentColor" stroke="currentColor"
    d="M253.26,198.9c-6.72,4.67-16.96,7.03-30.44,7.03h-.81c-.08,.04-.12,0-.15,0-14.1,.04-24.22-2.24-31.06-6.95-5.18-3.55-7.53-7.92-8.65-11.32h79.65c-1.08,3.36-3.44,7.69-8.54,11.24m-20.82,196.31h-20.94v-127.71h20.94v127.71Zm47.47-213.34v-61.92c0-3.21-3.86-5.79-8.61-5.79s-8.58,2.59-8.58,5.79v56.13h-15.72v-56.13c0-3.21-3.82-5.79-8.58-5.79s-8.61,2.59-8.61,5.79v56.13h-15.68v-56.13c0-3.21-3.86-5.79-8.61-5.79s-8.58,2.59-8.58,5.79v56.13h-15.72v-56.13c0-3.21-3.82-5.79-8.58-5.79s-8.61,2.59-8.61,5.79v61.81c-.04,1.51-.23,15.07,14.29,25.19,8.61,5.99,20.4,9.46,35.04,10.35v38.67h-10.47c-4.71,0-8.58,2.55-8.58,5.76v139.25c0,3.21,3.86,5.79,8.58,5.79h38.16c4.71,0,8.58-2.59,8.58-5.79v-139.25c0-3.21-3.86-5.76-8.58-5.76h-10.47v-38.67c14.64-.89,26.42-4.36,35.04-10.35,14.14-9.85,14.37-23.02,14.29-25.07" />
  <path stroke-width="5" fill="currentColor" stroke="currentColor"
    d="M309.13,265.04h-19.43c1.24-23.1,5.72-105.03,7.96-125.08,.62-5.76,2.47-9.66,5.41-11.7,1.93-1.31,4.17-1.74,6.06-1.82v138.6Zm7.34-149.34c-1.12-.31-11.12-2.9-19.78,2.94-5.95,3.98-9.5,10.74-10.55,20.01-2.63,23.68-8.07,127.43-8.31,131.84-.08,1.62,.46,3.17,1.58,4.29,1.08,1.16,2.59,1.82,4.17,1.82h25.53v125.74c0,3.17,2.59,5.76,5.76,5.76s5.79-2.59,5.79-5.76V121.26c0-2.59-1.74-4.87-4.21-5.56" />
</svg>
