<?xml version="1.0" encoding="UTF-8" standalone="no"?>
<!-- Created with Inkscape (http://www.inkscape.org/) -->

<svg version="1.1" id="svg1647" xml:space="preserve" width="682.66669" height="682.66669"
  viewBox="0 0 682.66669 682.66669" xmlns="http://www.w3.org/2000/svg" xmlns:svg="http://www.w3.org/2000/svg">
  <defs id="defs1651">
    <clipPath clipPathUnits="userSpaceOnUse" id="clipPath1661">
      <path d="M 0,512 H 512 V 0 H 0 Z" id="path1659" />
    </clipPath>
  </defs>
  <g id="g1653" transform="matrix(1.3333333,0,0,-1.3333333,0,682.66667)">
    <g id="g1655">
      <g id="g1657" clip-path="url(#clipPath1661)">
        <path d="M 346,75 H 166 V 15 h 180 z"
          stroke="currentColor" style="fill:none;stroke-width:30;stroke-linecap:butt;stroke-linejoin:miter;stroke-miterlimit:10;stroke-dasharray:none;stroke-opacity:1"
          id="path1663" />
        <g id="g1665" transform="translate(316,75)">
          <path
            d="M 0,0 C 0,58.685 17.371,117.056 49.924,165.885 L 60,181 -60,405.4 -180,181 -169.924,165.885 C -137.371,117.056 -120,58.685 -120,0"
            stroke="currentColor" style="fill:none;stroke-width:30;stroke-linecap:butt;stroke-linejoin:miter;stroke-miterlimit:10;stroke-dasharray:none;stroke-opacity:1"
            id="path1667" />
        </g>
        <g id="g1669" transform="translate(286,256)">
          <path
            d="m 0,0 c 0,-16.568 -13.432,-30 -30,-30 -16.568,0 -30,13.432 -30,30 0,16.568 13.432,30 30,30 C -13.432,30 0,16.568 0,0 Z"
            stroke="currentColor" style="fill:none;stroke-width:30;stroke-linecap:butt;stroke-linejoin:miter;stroke-miterlimit:10;stroke-dasharray:none;stroke-opacity:1"
            id="path1671" />
        </g>
        <g id="g1673" transform="translate(256,480.3999)">
          <path d="M 0,0 V -194.4"
            stroke="currentColor" style="fill:none;stroke-width:30;stroke-linecap:butt;stroke-linejoin:miter;stroke-miterlimit:10;stroke-dasharray:none;stroke-opacity:1"
            id="path1675" />
        </g>
      </g>
    </g>
  </g>
</svg>
