<svg height="512" viewBox="0 0 64 64" width="512" xmlns="http://www.w3.org/2000/svg">
  <g id="ad">
    <path stroke-width="1" stroke="currentColor"
      d="m12 36.862c0 7.309 3.631 14.093 9.712 18.148l8.343 5.562c2.383 1.588 5.156 2.428 8.019 2.428 7.679 0 13.926-6.247 13.926-13.926v-2.097c0-3.376-.371-6.759-1.104-10.052-.59-2.659-1.86-5.101-3.688-7.106l1.088-2.176c.46-.92.703-1.951.703-2.979 0-2.746-1.671-5.109-4.049-6.127.732-.22 1.472-.414 2.228-.552.264-.048.498-.2.648-.422.151-.222.206-.495.153-.758l-1-5c-.105-.524-.605-.872-1.132-.792-1.084.167-2.146.403-3.184.7-.92-1.504-2.168-2.78-3.689-3.692-.602-.361-.976-1.022-.976-1.724v-4.297c0-.552-.448-1-1-1h-4c-.552 0-1 .448-1 1v3.124c0 .347-.039.689-.105 1.023l-.93-3.411c-.143-.525-.677-.841-1.208-.707l-4 1c-.518.129-.843.643-.738 1.167l.867 4.334c.076.376.114.763.114 1.148 0 .338-.038.671-.095 1.001-.157-.286-.3-.581-.416-.892l-1.552-4.14c-.1-.266-.307-.476-.571-.58-.265-.104-.559-.091-.813.036l-4 2c-.458.229-.669.767-.489 1.246l1.703 4.541c.765 2.039 1.162 4.173 1.213 6.344-5.629 4.097-8.98 10.637-8.98 17.626zm36.944.496c.701 3.152 1.056 6.388 1.056 9.619v2.097c0 6.576-5.35 11.926-11.926 11.926-2.467 0-4.856-.724-6.91-2.092l-8.343-5.562c-4.005-2.67-6.831-6.646-8.087-11.16l.167-.668c.558-2.231 1.546-4.305 2.851-6.151 1.242 2.272 2.909 4.319 4.896 5.975.859.716 1.352 1.768 1.352 2.886 0 .404-.065.804-.193 1.188l-.756 2.268 1.897.633.756-2.268c.196-.588.295-1.201.295-1.82 0-1.713-.755-3.326-2.071-4.422-.979-.816-1.869-1.741-2.662-2.742 2.57.237 5.065 1.185 7.133 2.736l1.2-1.6c-2.752-2.064-6.161-3.2-9.6-3.2h-.163c-.261-.438-.498-.89-.722-1.348 1.382-1.534 3.009-2.854 4.852-3.859 2.151-1.173 4.583-1.793 7.033-1.793 3.309 0 6 2.691 6 6 0 .404.244.769.617.924.374.153.803.069 1.09-.217l1.05-1.05c-.35 2.568-1.085 5.049-2.165 7.367-2.041.122-3.959 1.132-5.191 2.776-.563.751-1.461 1.2-2.4 1.2v2c1.565 0 3.061-.748 4-2 .611-.816 1.46-1.412 2.409-1.732-1.561 2.633-3.591 4.997-6.034 6.951l1.249 1.562c.874-.699 1.693-1.451 2.468-2.241.596 1.757.908 3.586.908 5.46h2c0-2.462-.487-4.85-1.405-7.122 1.511-1.815 2.776-3.81 3.774-5.935.462.597.793 1.279.984 2.015l-.128.16c-.79.988-1.225 2.228-1.225 3.492 0 1.107.325 2.18.939 3.101.694 1.042 1.061 2.253 1.061 3.505v.784h2v-.784c0-1.647-.483-3.243-1.397-4.615-.395-.591-.603-1.279-.603-1.991 0-.287.047-.57.115-.847.682 1.64 1.828 3.066 3.331 4.068l1.109-1.664c-1.67-1.113-2.791-2.892-3.075-4.879-.241-1.688-1.03-3.223-2.243-4.394.419-1.117.761-2.264 1.033-3.432 1.923.877 3.324 2.611 3.749 4.734l1.961-.393c-.584-2.919-2.589-5.268-5.314-6.336.127-.811.21-1.631.265-2.456 1.118-.597 2.361-.93 3.654-.991 1.667 1.776 2.83 3.954 3.36 6.338zm-1.944-12.695c0 .72-.17 1.441-.492 2.085l-1.141 2.281c-2.492.146-4.825 1.135-6.652 2.849-.598-2.171-2.092-3.971-4.056-4.986.86-2.214 2.283-4.165 4.141-5.652 1-.8 2.255-1.241 3.537-1.241 2.571 0 4.663 2.092 4.663 4.663zm-1.176-8.442c-1.95.447-3.827 1.152-5.593 2.101-.969.278-1.888.722-2.68 1.357-2.144 1.715-3.785 3.969-4.77 6.527-.573-.131-1.168-.206-1.781-.206-.869 0-1.734.077-2.59.212 3.225-6.801 9.447-11.624 16.801-13.059zm-11.824-11.097v-2.124h2v3.295c0 1.401.746 2.719 1.947 3.439 1.112.667 2.054 1.566 2.78 2.627-5.589 2.098-10.292 6.091-13.267 11.352-.3-1.096-.46-2.223-.46-3.37 0-3.74 1.628-7.28 4.467-9.713 1.609-1.379 2.533-3.387 2.533-5.507zm-4.707-.917 1.241 4.552c-.117.122-.239.241-.369.352-.953.817-1.773 1.752-2.478 2.759.207-.711.312-1.445.312-2.192 0-.518-.051-1.037-.153-1.542l-.68-3.399 2.125-.531zm-6.839 3.184 1.162 3.1c.556 1.482 1.497 2.746 2.711 3.734-.863 1.899-1.327 3.98-1.327 6.119 0 1.89.356 3.738 1.058 5.494l.145.362-.277.593c-1.008.321-1.986.737-2.917 1.245-.723.394-1.409.842-2.073 1.317l.967-2.901c.728-2.184 1.097-4.457 1.097-6.758 0-2.571-.458-5.096-1.36-7.504l-1.387-3.698 2.201-1.101zm-1.592 14.484c-.152 1.338-.428 2.66-.856 3.945l-2.032 6.097c-1.659 1.75-2.982 3.798-3.94 6.025-.019-.359-.033-.718-.033-1.08 0-5.793 2.533-11.249 6.862-14.987z" />
  </g>
</svg>
