<svg xmlns="http://www.w3.org/2000/svg" viewBox="0 0 122.88 122.88"><path d="M81.61 4.73c0-2.61 2.58-4.73 5.77-4.73s5.77 2.12 5.77 4.73v20.72c0 2.61-2.58 4.73-5.77 4.73s-5.77-2.12-5.77-4.73V4.73h0zm-15.5 99.08c-.34 0-.61-1.43-.61-3.2s.27-3.2.61-3.2H81.9c.34 0 .61 1.43.61 3.2s-.27 3.2-.61 3.2H66.11h0zM15.85 67.09c-.34 0-.61-1.43-.61-3.2s.27-3.2.61-3.2h15.79c.34 0 .61 1.43.61 3.2s-.27 3.2-.61 3.2H15.85h0zm25.13 0c-.34 0-.61-1.43-.61-3.2s.27-3.2.61-3.2h15.79c.34 0 .61 1.43.61 3.2s-.27 3.2-.61 3.2H40.98h0zm25.13 0c-.34 0-.61-1.43-.61-3.2s.27-3.2.61-3.2H81.9c.34 0 .61 1.43.61 3.2s-.27 3.2-.61 3.2H66.11h0zm25.14 0c-.34 0-.61-1.43-.61-3.2s.27-3.2.61-3.2h15.79c.34 0 .61 1.43.61 3.2s-.27 3.2-.61 3.2H91.25h0zm-75.4 18.36c-.34 0-.61-1.43-.61-3.2s.27-3.2.61-3.2h15.79c.34 0 .61 1.43.61 3.2s-.27 3.2-.61 3.2H15.85h0zm25.13 0c-.34 0-.61-1.43-.61-3.2s.27-3.2.61-3.2h15.79c.34 0 .61 1.43.61 3.2s-.27 3.2-.61 3.2H40.98h0zm25.13 0c-.34 0-.61-1.43-.61-3.2s.27-3.2.61-3.2H81.9c.34 0 .61 1.43.61 3.2s-.27 3.2-.61 3.2H66.11h0zm25.14 0c-.34 0-.61-1.43-.61-3.2s.27-3.2.61-3.2h15.79c.34 0 .61 1.43.61 3.2s-.27 3.2-.61 3.2H91.25h0zm-75.4 18.36c-.34 0-.61-1.43-.61-3.2s.27-3.2.61-3.2h15.79c.34 0 .61 1.43.61 3.2s-.27 3.2-.61 3.2H15.85h0zm25.13 0c-.34 0-.61-1.43-.61-3.2s.27-3.2.61-3.2h15.79c.34 0 .61 1.43.61 3.2s-.27 3.2-.61 3.2H40.98h0zM29.61 4.73c0-2.61 2.58-4.73 5.77-4.73s5.77 2.12 5.77 4.73v20.72c0 2.61-2.58 4.73-5.77 4.73s-5.77-2.12-5.77-4.73V4.73h0zM6.4 45.32h110.07V21.47c0-.8-.33-1.53-.86-2.07-.53-.53-1.26-.86-2.07-.86H103c-1.77 0-3.2-1.43-3.2-3.2s1.43-3.2 3.2-3.2h10.55c2.57 0 4.9 1.05 6.59 2.74s2.74 4.02 2.74 6.59v27.06 65.03c0 2.57-1.05 4.9-2.74 6.59s-4.02 2.74-6.59 2.74H9.33c-2.57 0-4.9-1.05-6.59-2.74-1.69-1.7-2.74-4.03-2.74-6.6V48.52 21.47c0-2.57 1.05-4.9 2.74-6.59s4.02-2.74 6.59-2.74H20.6c1.77 0 3.2 1.43 3.2 3.2s-1.43 3.2-3.2 3.2H9.33c-.8 0-1.53.33-2.07.86-.53.53-.86 1.26-.86 2.07v23.85h0zm110.08 6.41H6.4v61.82c0 .8.33 1.53.86 2.07.53.53 1.26.86 2.07.86h104.22c.8 0 1.53-.33 2.07-.86.53-.53.86-1.26.86-2.07V51.73h0zM50.43 18.54c-1.77 0-3.2-1.43-3.2-3.2s1.43-3.2 3.2-3.2h21.49c1.77 0 3.2 1.43 3.2 3.2s-1.43 3.2-3.2 3.2H50.43h0z"/></svg>
